# xmcd
#
# Track frame offsets:
#	187
#	10975
#	26872
#	40005
#	51797
#	66252
#	79567
#	91760
#	105955
#	125970
#
# Disc length: 1837 seconds
#
# Revision: 1
# Processed by: cddbd v1.5.1PL2 Copyright (c) Steve Scherf et al.
# Submitted via: audiograbber 1.83.01
#
DISCID=78072b0a
DTITLE=JVC - JVC039
DYEAR=1900
DGENRE=Karaoke Country
TTITLE0=Campbell, Glen - Try A Little Kindness
TTITLE1=Campbell, Glen - Rhinestone Cowboy
TTITLE2=Arnold, Eddie - Make The World Go Away
TTITLE3=Arnold, Eddie - I Want To Go With You
TTITLE4=Dean, Jimmy - Big Bad John
TTITLE5=Cline, Patsy - I Fall To Pieces
TTITLE6=Cline, Patsy - Crazy
TTITLE7=Cline, Patsy - She'S Got You
TTITLE8=Gentry, Bobbie - Ode To Billy Joe
TTITLE9=Davis, Skeeter - End Of A Rainbow, The
EXTD=
EXTT0=
EXTT1=
EXTT2=
EXTT3=
EXTT4=
EXTT5=
EXTT6=
EXTT7=
EXTT8=
EXTT9=
PLAYORDER=
